<?xml version="1.0" standalone="no"?>
<!DOCTYPE svg PUBLIC "-//W3C//DTD SVG 20010904//EN"
 "http://www.w3.org/TR/2001/REC-SVG-20010904/DTD/svg10.dtd">
<svg version="1.0" xmlns="http://www.w3.org/2000/svg"
 width="512.000000pt" height="512.000000pt" viewBox="0 0 512.000000 512.000000"
 preserveAspectRatio="xMidYMid meet">
<metadata>
Created by potrace 1.14, written by Peter Selinger 2001-2017
</metadata>
<g transform="translate(0.000000,512.000000) scale(0.100000,-0.100000)"
fill="#000000" stroke="none">
<path d="M2420 4107 c-3 -3 -34 -7 -70 -11 -133 -12 -365 -83 -512 -156 -98
-50 -226 -133 -233 -152 -4 -10 -4 -27 0 -37 11 -35 41 -31 117 16 289 179
551 254 863 248 203 -3 362 -34 542 -106 72 -28 125 -55 242 -122 57 -33 90
-22 91 29 0 16 -18 32 -67 62 -77 47 -256 132 -276 132 -8 0 -17 3 -21 7 -3 4
-12 8 -19 10 -7 1 -52 14 -102 28 -129 36 -250 52 -410 54 -78 1 -143 0 -145
-2z"/>
<path d="M2424 3939 c-537 -51 -1012 -408 -1206 -905 -66 -168 -95 -313 -103
-514 -6 -150 -13 -211 -37 -290 -34 -114 -80 -208 -148 -300 -79 -106 -127
-146 -425 -350 -495 -338 -505 -345 -505 -368 0 -22 11 -37 33 -45 17 -6 132
50 612 298 77 40 253 130 390 200 138 70 269 139 293 151 23 13 47 24 52 24 5
0 29 -30 53 -67 254 -393 688 -622 1157 -612 656 15 1202 498 1298 1149 9 62
9 311 -1 387 -9 72 -46 208 -84 306 -14 37 -24 69 -22 71 4 3 161 84 614 316
121 62 265 136 320 165 55 29 161 83 235 120 148 75 170 90 170 115 0 21 -30
48 -50 45 -9 -1 -180 -62 -380 -135 -583 -211 -585 -211 -775 -205 -184 6
-336 59 -506 175 -302 207 -649 301 -985 269z m256 -93 c41 -3 86 -8 100 -11
218 -42 383 -110 567 -233 110 -74 159 -101 248 -135 217 -84 479 -87 696 -7
46 16 79 26 74 21 -6 -5 -122 -66 -260 -137 -460 -235 -430 -218 -433 -246 -2
-15 6 -45 18 -68 41 -81 89 -236 107 -345 14 -89 8 -333 -10 -422 -54 -256
-183 -495 -357 -658 -23 -22 -52 -49 -64 -61 -12 -11 -55 -43 -96 -71 -125
-85 -235 -136 -380 -176 -128 -36 -211 -45 -365 -42 -384 7 -734 188 -968 500
-33 44 -62 87 -65 95 -14 40 -64 100 -83 100 -18 0 -381 -181 -607 -302 -41
-22 -76 -38 -78 -36 -2 3 27 26 64 53 165 121 284 278 353 466 40 110 58 209
64 354 7 175 14 228 45 350 100 389 367 716 720 881 168 79 314 118 490 130
47 4 86 8 88 9 1 1 15 1 30 0 15 -2 61 -6 102 -9z"/>
<path d="M2449 3625 c-2 -2 -24 -6 -49 -8 -236 -28 -498 -167 -671 -355 -60
-66 -152 -199 -178 -257 -43 -95 -42 -92 -22 -116 30 -37 61 -15 106 77 105
212 301 396 521 488 149 62 236 79 409 79 134 -1 162 -4 262 -31 108 -28 113
-29 129 -11 11 12 14 27 10 43 -5 20 -18 28 -74 45 -98 29 -226 48 -340 49
-55 0 -101 -1 -103 -3z"/>
<path d="M3022 3498 c-26 -26 -14 -58 34 -86 26 -15 81 -51 122 -80 56 -40 81
-52 98 -48 25 7 40 38 27 60 -8 15 -137 116 -148 116 -3 0 -23 11 -45 25 -44
27 -70 31 -88 13z"/>
<path d="M2475 3469 c-434 -44 -782 -355 -870 -779 -20 -95 -23 -274 -5 -295
7 -8 21 -15 32 -15 11 0 127 55 257 121 130 67 317 163 416 214 99 51 275 141
390 200 546 280 527 268 506 307 -6 13 -38 42 -69 65 -127 94 -321 168 -471
179 -42 3 -85 7 -96 8 -11 1 -51 -1 -90 -5z m315 -118 c123 -35 293 -123 273
-141 -4 -4 -100 -55 -213 -112 -113 -58 -304 -156 -425 -218 -121 -62 -283
-145 -360 -185 -197 -102 -347 -178 -368 -187 -18 -7 -18 -3 -13 64 25 340
254 639 581 757 45 16 102 33 126 36 24 4 46 9 48 11 3 2 66 3 140 0 100 -2
156 -9 211 -25z"/>
<path d="M3612 3262 c-34 -17 -55 -35 -58 -49 -16 -60 25 -72 105 -30 64 33
81 60 54 89 -21 24 -38 22 -101 -10z"/>
<path d="M3424 3164 c-41 -17 -57 -39 -50 -68 8 -31 40 -39 82 -18 74 35 43
118 -32 86z"/>
<path d="M3125 3011 c-82 -42 -287 -148 -455 -234 -168 -85 -333 -170 -367
-188 -35 -18 -65 -40 -68 -50 -8 -24 15 -59 39 -59 17 0 164 73 601 300 61 31
171 88 245 125 174 88 210 111 210 134 0 18 -29 51 -46 51 -5 -1 -76 -36 -159
-79z"/>
<path d="M3440 3004 c-47 -25 -222 -115 -390 -201 -168 -86 -363 -186 -435
-223 -183 -95 -475 -244 -790 -405 -148 -76 -276 -142 -282 -148 -16 -12 -17
-49 -1 -65 19 -19 44 -14 110 19 71 36 56 43 133 -66 164 -233 475 -388 775
-386 58 0 116 3 130 6 14 3 41 8 60 11 101 17 239 73 340 138 231 150 395 408
436 686 18 129 -2 323 -47 447 -11 32 -23 65 -25 73 -3 10 16 26 62 50 76 40
90 58 68 88 -22 31 -48 27 -144 -24z m-47 -221 c14 -43 28 -91 31 -108 3 -16
8 -43 11 -60 3 -16 5 -64 4 -105 0 -41 -1 -84 0 -95 1 -48 -45 -208 -84 -290
-107 -226 -270 -372 -514 -459 -101 -36 -135 -41 -296 -40 -121 1 -152 5 -228
28 -156 47 -261 108 -371 218 -73 71 -151 178 -138 189 4 3 133 70 287 149
154 79 339 173 410 210 72 37 231 119 355 183 124 63 287 147 363 186 76 39
140 71 142 71 2 0 15 -35 28 -77z"/>
<path d="M3279 2719 c-11 -11 -18 -27 -15 -37 15 -46 23 -157 19 -245 -4 -94
-4 -97 19 -106 54 -20 69 12 73 148 5 155 -23 261 -67 261 -4 0 -17 -9 -29
-21z"/>
<path d="M3121 2039 c-44 -56 -46 -61 -31 -90 19 -34 55 -23 99 29 42 48 50
79 29 100 -25 25 -56 13 -97 -39z"/>
<path d="M1970 1981 c-15 -29 -13 -33 23 -71 91 -96 154 -115 169 -53 5 19 -6
33 -65 83 -75 62 -109 73 -127 41z"/>
<path d="M2900 1853 c-8 -3 -28 -11 -45 -19 -127 -55 -286 -74 -443 -53 -33 5
-58 -39 -38 -66 16 -22 69 -30 201 -29 122 0 210 18 313 65 70 31 81 48 58 84
-17 26 -21 27 -46 18z"/>
<path d="M1477 2785 c-21 -20 -39 -131 -42 -260 -4 -132 3 -155 44 -155 16 0
33 5 37 12 4 6 9 63 10 127 2 64 5 125 8 136 15 70 17 126 6 140 -16 19 -44
19 -63 0z"/>
<path d="M1887 2376 c-143 -74 -264 -141 -269 -150 -13 -24 0 -55 26 -62 17
-4 62 14 157 64 74 38 189 97 256 132 68 34 128 69 134 76 16 20 3 61 -22 67
-15 4 -101 -35 -282 -127z"/>
<path d="M1421 2135 c-46 -24 -87 -49 -91 -56 -11 -17 0 -48 22 -60 16 -9 36
-2 106 34 48 24 91 51 96 60 11 17 -16 67 -37 67 -6 0 -50 -20 -96 -45z"/>
<path d="M1401 3617 c-155 -161 -286 -370 -357 -574 -32 -91 -28 -115 18 -121
31 -4 39 7 68 88 73 201 185 383 335 541 68 73 71 79 55 110 -20 36 -54 23
-119 -44z"/>
<path d="M4777 3524 c-73 -38 -100 -71 -77 -99 20 -24 60 -17 135 24 72 40 90
66 65 97 -19 22 -48 16 -123 -22z"/>
<path d="M4472 3367 c-46 -23 -63 -57 -42 -82 17 -21 48 -18 95 8 45 26 58 63
29 84 -23 17 -31 16 -82 -10z"/>
<path d="M4167 3212 c-152 -79 -176 -102 -147 -137 22 -26 53 -17 196 56 156
80 174 93 169 120 -11 57 -43 52 -218 -39z"/>
<path d="M3919 2929 c-11 -11 -18 -27 -15 -34 2 -7 15 -60 27 -117 23 -110 31
-128 60 -128 29 0 49 28 44 63 -26 197 -64 268 -116 216z"/>
<path d="M997 2853 c-8 -10 -18 -38 -22 -63 -5 -37 -3 -49 12 -62 41 -37 83 8
83 89 0 27 -5 35 -26 43 -32 12 -28 13 -47 -7z"/>
<path d="M3992 2579 c-29 -11 -30 -15 -36 -139 -17 -337 -143 -642 -363 -882
-62 -67 -55 -116 14 -109 7 0 27 18 45 38 18 20 40 44 48 52 21 22 120 159
120 166 0 3 15 29 33 58 61 96 131 279 161 418 24 114 27 136 33 259 5 104 4
117 -13 131 -14 12 -25 14 -42 8z"/>
<path d="M314 2485 c-117 -51 -167 -183 -115 -300 63 -143 251 -180 367 -74
35 32 67 109 67 159 0 171 -165 283 -319 215z m127 -75 c34 0 90 -61 99 -107
16 -90 -57 -170 -145 -161 -122 14 -168 158 -77 241 23 21 71 37 90 31 8 -2
22 -4 33 -4z"/>
<path d="M4740 2020 c-218 -60 -285 -323 -124 -484 69 -68 186 -94 282 -62 59
20 135 83 161 135 74 145 18 317 -124 387 -57 27 -144 38 -195 24z m145 -100
c40 -15 84 -61 101 -105 57 -150 -76 -298 -231 -256 -56 15 -112 72 -129 132
-46 153 106 287 259 229z"/>
<path d="M1109 1638 c-110 -56 -131 -76 -113 -105 20 -32 54 -26 152 24 105
53 127 79 97 113 -10 11 -21 20 -26 20 -4 0 -53 -24 -110 -52z"/>
<path d="M1405 1614 c-10 -10 -13 -24 -9 -37 9 -28 111 -139 145 -157 21 -12
59 15 59 40 0 16 -101 137 -135 162 -17 13 -43 9 -60 -8z"/>
<path d="M790 1478 c-41 -22 -149 -78 -240 -125 -91 -47 -171 -90 -177 -95
-22 -18 -15 -57 11 -69 21 -10 53 3 273 116 136 70 254 132 261 137 19 16 14
56 -7 68 -28 14 -37 12 -121 -32z"/>
<path d="M3405 1387 c-192 -145 -446 -250 -664 -275 -80 -9 -275 -9 -351 0
-204 24 -429 106 -591 216 -102 69 -115 75 -138 63 -23 -13 -32 -46 -17 -65
20 -25 161 -114 257 -162 216 -107 422 -153 679 -149 185 3 212 6 345 40 180
45 383 143 530 253 73 55 85 69 78 90 -7 20 -32 42 -47 42 -6 0 -42 -24 -81
-53z"/>
</g>
</svg>
